<svg version="1" xmlns="http://www.w3.org/2000/svg" width="1066.667" height="1066.667" viewBox="0 0 800.000000 800.000000"><path d="M391.9 152.9c-2.8 1.7-5.3 4.3-6.4 6.7-2.4 4.9-3.1 15-1.5 19.9 1.6 4.7 6.6 10.4 10.7 12.1 6.8 2.9 15.9 1 21.6-4.4 2.9-2.8 5.7-10.5 5.7-15.7 0-5.7-2.8-12.9-6.2-16.2-4.7-4.4-6.9-5.3-13.5-5.3-4.8 0-6.8.6-10.4 2.9zM131.5 233.9c-13.9 6.4-15.5 22.2-3.4 33.8 2.4 2.3 5.7 4.7 7.2 5.2 3.9 1.5 11.1 1.4 15-.3 7.2-3 12.5-12.7 11.2-20.5-.9-4.9-2.3-7.3-7.9-13.1-6.9-7.1-14.2-8.8-22.1-5.1zM661 233.5c-4 1.8-11.6 8.8-13.4 12.5-5 9.6-.1 23.2 9.7 26.9 3.9 1.5 11.1 1.4 15-.3 3.7-1.5 12.3-10.4 13.7-14.1 2.9-7.7-.4-18.8-7-23.1-4.9-3.2-13.1-4.1-18-1.9zM394.5 260.4c-7.8 3.6-11.5 10.9-11.5 22.9 0 7.1.4 9.1 2.8 13.8 6 11.9 21.5 14 30.6 3.9 4.5-4.9 5.1-7.3 5.1-18.5 0-10.5-1.8-15.1-7.8-19.9-3.1-2.5-4.8-3.1-10-3.3-3.8-.2-7.3.2-9.2 1.1zM208.5 313.2c-5 1-11.3 6-13.1 10.4-1.8 4.3-1.8 11.6.1 16 1.6 4 11.8 15 15.5 16.9 15.7 7.8 33.2-8.1 26.5-24.1-2-4.9-11.9-15.9-15.8-17.7-4.6-2.1-8.6-2.5-13.2-1.5zM590.4 313c-4.8 1.1-9.4 4.4-14.7 10.4-7.5 8.7-9 13.6-6.5 22 3.3 10.8 16.4 16.3 26.9 11 1.4-.7 5.5-4.4 9.1-8.2 8-8.5 9.7-13.7 7.3-22-1.7-5.5-7.6-11.8-12-12.7-5.5-1.1-7.1-1.2-10.1-.5zM394.5 374.8c-8.1 3.8-12.1 11.6-11.3 22.2.5 7.2 3.4 12.8 8.6 16.4 8.6 6.1 21.5 3.1 27-6.4 3.6-6.1 3.8-17.4.4-23.7-4.5-8.6-16.1-12.6-24.7-8.5zM281.2 399.1c-8 4-12.2 14.4-9.3 23.2 1.6 4.9 8.7 12.6 13.6 14.8 12.8 5.8 27.5-3.7 27.5-17.9 0-6.3-7.8-17.3-14.4-20.3-5.5-2.5-12.1-2.4-17.4.2zM508.3 399.1c-5.2 2.6-11.9 10.7-13.4 16.3-2.2 8.1 2.6 18.1 10.5 21.7 8.4 3.8 17 1.6 24.2-6.3 5-5.4 6.8-10.4 6.2-16.9-1.3-13.2-15.4-20.8-27.5-14.8zM390.3 488c-7.5 1.4-17.6 5.4-23.8 9.5-10.8 7.2-21.3 21.5-24.4 33.2l-1.2 4.3-121.5.2-121.6.3-3.4 3.7c-2.7 3-3.4 4.6-3.4 7.8 0 2.3.7 5.4 1.5 7 3.3 6.4-4.4 6 127.9 6h120.5l1.2 4.2c3.9 14.6 17.4 30.8 31 37.3 23.6 11.2 49.4 7.3 68-10.2 8-7.6 12.8-15 16-24.6l2.2-6.7h120.4c105.7 0 120.8-.2 123.3-1.5 6.9-3.5 7.9-14 2.1-19.9l-3.1-3.1-121.4-.3-121.4-.2-1.7-5.3c-3.1-9.7-7.7-17-15.6-24.8-8-8.1-17.2-13.4-27.1-15.8-6.9-1.6-18.5-2.1-24.5-1.1z"/></svg>